<?xml version="1.0" encoding="UTF-8"?>
<svg id="Layer_2" data-name="Layer 2" xmlns="http://www.w3.org/2000/svg" xmlns:xlink="http://www.w3.org/1999/xlink" viewBox="0 0 512 512">
  <defs>
    <style>
      .cls-1 {
        fill: url(#linear-gradient);
      }

      .cls-1, .cls-2, .cls-3, .cls-4, .cls-5 {
        stroke-width: 0px;
      }

      .cls-2 {
        fill: #000;
      }

      .cls-6 {
        stroke: url(#linear-gradient-5);
      }

      .cls-6, .cls-7, .cls-8, .cls-4, .cls-9, .cls-10, .cls-11, .cls-12, .cls-13, .cls-14, .cls-15, .cls-16 {
        fill: none;
      }

      .cls-6, .cls-7, .cls-8, .cls-9, .cls-10, .cls-11 {
        stroke-width: 12px;
      }

      .cls-6, .cls-7, .cls-8, .cls-9, .cls-10, .cls-11, .cls-12, .cls-13, .cls-15, .cls-16 {
        stroke-linecap: round;
      }

      .cls-6, .cls-7, .cls-9, .cls-10, .cls-11, .cls-13, .cls-14, .cls-15 {
        stroke-miterlimit: 10;
      }

      .cls-7, .cls-8, .cls-13, .cls-14 {
        stroke: #fff;
      }

      .cls-3 {
        fill: url(#linear-gradient-3);
        filter: url(#drop-shadow-1);
      }

      .cls-8, .cls-12, .cls-16 {
        stroke-linejoin: round;
      }

      .cls-9 {
        stroke: url(#linear-gradient-6);
      }

      .cls-17 {
        clip-path: url(#clippath-1);
      }

      .cls-10 {
        stroke: url(#linear-gradient-2);
      }

      .cls-11 {
        stroke: url(#linear-gradient-4);
      }

      .cls-12 {
        stroke-width: 44px;
      }

      .cls-12, .cls-15, .cls-16 {
        stroke: #000;
      }

      .cls-18 {
        clip-path: url(#clippath);
      }

      .cls-13 {
        stroke-width: 10px;
      }

      .cls-5 {
        fill: #fff;
      }

      .cls-14 {
        stroke-width: 24px;
      }

      .cls-15 {
        stroke-width: 22px;
      }

      .cls-16 {
        stroke-width: 32px;
      }
    </style>
    <clipPath id="clippath">
      <path class="cls-4" d="M256,512C45.8,512,0,466.2,0,256,0,45.8,45.8,0,256,0c210.2,0,256,45.8,256,256s-45.8,256-256,256Z"/>
    </clipPath>
    <linearGradient id="linear-gradient" x1="256" y1="319.5" x2="256" y2=".009" gradientUnits="userSpaceOnUse">
      <stop offset="0" stop-color="#000"/>
      <stop offset=".5" stop-color="#000"/>
      <stop offset="1" stop-color="#000"/>
    </linearGradient>
    <clipPath id="clippath-1">
      <polygon class="cls-4" points="174.394 492.43 337.606 -98.081 -38.336 -95.3 -61.245 489.209 174.394 492.43"/>
    </clipPath>
    <linearGradient id="linear-gradient-2" x1="122.89" y1="383.5" x2="122.89" y2="341.5" gradientUnits="userSpaceOnUse">
      <stop offset="0" stop-color="#fff"/>
      <stop offset="1" stop-color="#fff"/>
    </linearGradient>
    <linearGradient id="linear-gradient-3" x1="257.36" y1="466.464" x2="257.36" y2="398.336" xlink:href="#linear-gradient-2"/>
    <filter id="drop-shadow-1" filterUnits="userSpaceOnUse">
      <feOffset dx="0" dy="8"/>
      <feGaussianBlur result="blur" stdDeviation="20"/>
      <feFlood flood-color="#000" flood-opacity=".5"/>
      <feComposite in2="blur" operator="in"/>
      <feComposite in="SourceGraphic"/>
    </filter>
    <linearGradient id="linear-gradient-4" y1="450.092" y2="411.908" xlink:href="#linear-gradient-2"/>
    <linearGradient id="linear-gradient-5" y1="450.092" y2="411.908" xlink:href="#linear-gradient-2"/>
    <linearGradient id="linear-gradient-6" x1="388.52" y1="456.8" x2="388.52" y2="405.2" xlink:href="#linear-gradient-2"/>
  </defs>
  <g id="clpchk-logo-B">
    <g class="cls-18">
      <rect class="cls-1" y=".009" width="512" height="319.491"/>
      <g class="cls-17">
        <path class="cls-5" d="M-130.5,304l188.5,87.5,179.914-179.914c4.466-4.466,11.707-4.466,16.173,0l23.414,23.414,51.914-51.914c4.466-4.466,11.707-4.466,16.173,0l74.914,74.914h124s0,305.5,0,305.5H-144.5l14-259.5Z"/>
        <g>
          <path class="cls-5" d="M-43.5,597c-1.363,0-2.667-.557-3.609-1.54-.943-.984-1.444-2.311-1.386-3.672l14-329.5c.113-2.676,2.316-4.788,4.995-4.788H50.429l73.45-73.449c3.104-3.104,7.231-4.813,11.621-4.813s8.518,1.709,11.622,4.813l148.878,148.878,107.379-107.378c3.104-3.104,7.231-4.813,11.621-4.813s8.518,1.709,11.622,4.813l54.449,54.449h98.929c2.613,0,4.786,2.013,4.985,4.618l23.5,307c.106,1.389-.371,2.758-1.317,3.779s-2.275,1.603-3.668,1.603H-43.5Z"/>
          <path class="cls-2" d="M135.5,184.237c2.927,0,5.853,1.116,8.086,3.349l152.414,152.414,110.914-110.914c2.233-2.233,5.16-3.349,8.086-3.349s5.853,1.116,8.086,3.349l55.914,55.914h101l23.5,307H-43.5l14-329.5H52.5l74.914-74.914c2.233-2.233,5.16-3.349,8.086-3.349M135.5,174.237c-5.726,0-11.109,2.23-15.158,6.278l-71.985,71.985H-29.5c-5.358,0-9.764,4.223-9.991,9.575l-14,329.5c-.116,2.723.885,5.376,2.771,7.344,1.886,1.968,4.494,3.081,7.22,3.081h647c2.785,0,5.443-1.161,7.336-3.204,1.892-2.043,2.847-4.782,2.635-7.559l-23.5-307c-.399-5.212-4.744-9.237-9.971-9.237h-96.858l-52.985-52.985c-4.049-4.049-9.432-6.278-15.157-6.278s-11.109,2.23-15.158,6.278l-103.842,103.842-145.343-145.342c-4.049-4.049-9.432-6.278-15.157-6.278h0Z"/>
        </g>
      </g>
      <g>
        <rect class="cls-2" x="291.673" y="316.047" width="12.467" height="9.883"/>
        <rect class="cls-2" x="279.207" y="306.163" width="12.467" height="9.883"/>
        <rect class="cls-2" x="266.74" y="296.28" width="12.467" height="9.883"/>
        <rect class="cls-2" x="254.273" y="286.397" width="12.467" height="9.883"/>
        <rect class="cls-2" x="241.807" y="276.513" width="12.467" height="9.883"/>
        <g>
          <polygon class="cls-5" points="279.207 306.163 266.74 306.163 266.74 296.28 254.273 296.28 254.273 286.397 241.807 286.397 229.34 286.397 229.34 296.28 229.34 306.163 229.34 316.047 229.34 325.93 241.807 325.93 254.273 325.93 266.74 325.93 279.207 325.93 291.673 325.93 291.673 316.047 279.207 316.047 279.207 306.163"/>
          <polygon class="cls-5" points="491.14 286.397 478.673 286.397 478.673 276.513 466.207 276.513 466.207 266.63 453.74 266.63 453.74 256.747 441.273 256.747 441.273 246.863 428.807 246.863 428.807 236.98 428.807 227.097 416.34 227.097 403.873 227.097 403.873 236.98 403.873 246.863 391.407 246.863 391.407 256.747 378.94 256.747 378.94 266.63 366.473 266.63 366.473 276.513 354.007 276.513 354.007 286.397 354.007 296.28 341.54 296.28 341.54 306.163 329.073 306.163 329.073 316.047 329.073 325.93 341.54 325.93 354.007 325.93 366.473 325.93 378.94 325.93 391.407 325.93 403.873 325.93 416.34 325.93 428.807 325.93 441.273 325.93 453.74 325.93 466.207 325.93 478.673 325.93 491.14 325.93 503.607 325.93 503.607 316.047 503.607 306.163 503.607 296.28 503.607 286.397 491.14 286.397"/>
          <polygon class="cls-5" points="341.54 296.28 341.54 286.397 341.54 276.513 354.007 276.513 354.007 266.63 366.473 266.63 366.473 256.747 378.94 256.747 378.94 246.863 391.407 246.863 391.407 236.98 391.407 227.097 378.94 227.097 378.94 217.213 378.94 207.33 366.473 207.33 366.473 197.447 354.007 197.447 354.007 187.563 341.54 187.563 341.54 177.68 329.073 177.68 329.073 187.563 316.607 187.563 316.607 197.447 316.607 207.33 304.14 207.33 304.14 217.213 291.673 217.213 291.673 227.097 279.207 227.097 266.74 227.097 266.74 217.213 254.273 217.213 254.273 227.097 254.273 236.98 254.273 246.863 241.807 246.863 241.807 256.747 241.807 266.63 241.807 276.513 254.273 276.513 254.273 286.397 266.74 286.397 266.74 296.28 279.207 296.28 279.207 306.163 291.673 306.163 291.673 316.047 304.14 316.047 304.14 325.93 316.607 325.93 316.607 316.047 316.607 306.163 329.073 306.163 329.073 296.28 341.54 296.28"/>
        </g>
        <rect class="cls-2" x="316.607" y="316.047" width="12.467" height="9.883"/>
        <rect class="cls-2" x="316.607" y="306.163" width="12.467" height="9.883"/>
        <rect class="cls-2" x="329.073" y="296.28" width="12.467" height="9.883"/>
        <rect class="cls-2" x="341.54" y="286.397" width="12.467" height="9.883"/>
        <rect class="cls-2" x="341.54" y="276.513" width="12.467" height="9.883"/>
        <rect class="cls-2" x="354.007" y="266.63" width="12.467" height="9.883"/>
        <rect class="cls-2" x="366.473" y="256.747" width="12.467" height="9.883"/>
        <rect class="cls-2" x="378.94" y="246.863" width="12.467" height="9.883"/>
        <rect class="cls-2" x="391.407" y="236.98" width="12.467" height="9.883"/>
      </g>
      <g>
        <g>
          <g>
            <line class="cls-16" x1="159.576" y1="192.505" x2="355.005" y2="192.505"/>
            <polyline class="cls-16" points="318.209 221.255 355.005 192.505 334.101 163.755"/>
            <polyline class="cls-16" points="196.373 163.755 159.576 192.505 180.48 221.255"/>
          </g>
          <polyline class="cls-12" points="174.394 492.43 255.925 197.447 337.606 -98.081"/>
        </g>
        <g>
          <line class="cls-7" x1="159.576" y1="192.505" x2="355.005" y2="192.505"/>
          <polyline class="cls-8" points="318.209 221.255 355.005 192.505 334.101 163.755"/>
          <polyline class="cls-8" points="196.373 163.755 159.576 192.505 180.48 221.255"/>
        </g>
        <polyline class="cls-14" points="174.394 492.43 255.925 197.447 337.606 -98.081"/>
      </g>
      <rect class="cls-2" x=".5" y="319.5" width="511" height="196"/>
      <g>
        <line class="cls-13" x1="48.5" y1="362.5" x2="463.5" y2="362.5"/>
        <line class="cls-15" x1="122.89" y1="377.5" x2="122.89" y2="347.5"/>
        <line class="cls-10" x1="122.89" y1="377.5" x2="122.89" y2="347.5"/>
      </g>
      <path class="cls-3" d="M232.83,457.955v-51.11c0-7.113,8.221-11.075,13.785-6.642l32.075,25.555c4.267,3.4,4.267,9.884,0,13.284l-32.075,25.555c-5.563,4.433-13.785.471-13.785-6.642Z"/>
      <g>
        <line class="cls-11" x1="141.982" y1="450.092" x2="103.799" y2="411.908"/>
        <line class="cls-6" x1="103.799" y1="450.092" x2="141.982" y2="411.908"/>
      </g>
      <circle class="cls-9" cx="388.52" cy="431" r="19.8"/>
      <path class="cls-2" d="M256,10c55.215,0,95.41,3.241,126.494,10.199,32.711,7.322,55.99,18.777,73.26,36.047,17.27,17.27,28.724,40.549,36.047,73.26,6.958,31.084,10.199,71.278,10.199,126.494s-3.241,95.41-10.199,126.494c-7.323,32.711-18.777,55.99-36.047,73.26-17.27,17.27-40.549,28.725-73.26,36.047-31.084,6.958-71.278,10.199-126.494,10.199s-95.41-3.241-126.494-10.199c-32.711-7.322-55.99-18.777-73.26-36.047s-28.724-40.549-36.047-73.26c-6.958-31.084-10.199-71.278-10.199-126.494s3.241-95.41,10.199-126.494c7.323-32.711,18.777-55.99,36.047-73.26,17.27-17.27,40.549-28.725,73.26-36.047,31.084-6.958,71.278-10.199,126.494-10.199M256,0C45.8,0,0,45.8,0,256s45.8,256,256,256,256-45.8,256-256S466.2,0,256,0h0Z"/>
    </g>
  </g>
</svg>