<?xml version="1.0" encoding="utf-8"?>
<!-- Generator: Adobe Illustrator 30.0.0, SVG Export Plug-In . SVG Version: 9.03 Build 0)  -->
<svg version="1.1" xmlns="http://www.w3.org/2000/svg" xmlns:xlink="http://www.w3.org/1999/xlink" x="0px" y="0px"
	 viewBox="0 0 1024 1024" style="enable-background:new 0 0 1024 1024;" xml:space="preserve">
<g>
</g>
<g id="_x32___x2013__Layer">
	<path style="fill:#FFFFFF;" d="M863.5257568,321.960083l-67.749939-93.1795044
		c-12.9550171-17.8178101-37.9011841-21.7603607-55.7219238-8.8048248
		c-17.8187866,12.9560394-21.760376,37.9036102-8.8043213,55.7223969l21.6890869,29.8298035H586.5424194l67.4718018-244.115921
		l-119.7896729-7.6179771l-69.5769043,251.733902H313.7219543l27.9718018-21.8552246
		c17.3601379-13.5639648,20.4378967-38.6331482,6.8739014-55.9928131
		c-13.5639954-17.3606262-38.6321716-20.4374237-55.9932861-6.8739166l-119.2569427,93.1790161
		c-16.9286041,13.2277222-20.3381805,37.5155029-7.7041626,54.8916931l67.749939,93.1795044
		c12.9570923,17.8191223,37.9022675,21.7605591,55.7223969,8.8048096
		c17.8182983-12.9560242,21.760376-37.903595,8.8048401-55.7223816l-21.6893005-29.8298035h166.395752l-53.2603455,192.6994019
		l121.6369629,0.9312744l53.5180664-193.6306763h150.9262695l-27.9721069,21.8552246
		c-17.3596191,13.5639954-20.4373779,38.6331482-6.8734131,55.9932861
		c13.5619507,17.3565369,38.6363525,20.4348145,55.9932861,6.8734436l119.256958-93.1790161
		C872.7478638,363.633606,876.1604614,339.3315735,863.5257568,321.960083z"/>
</g>
</svg>
