<?xml version="1.0" encoding="utf-8"?>
<!-- Generator: Adobe Illustrator 30.0.0, SVG Export Plug-In . SVG Version: 9.03 Build 0)  -->
<svg version="1.1" xmlns="http://www.w3.org/2000/svg" xmlns:xlink="http://www.w3.org/1999/xlink" x="0px" y="0px"
	 viewBox="0 0 1024 1024" style="enable-background:new 0 0 1024 1024;" xml:space="preserve">
<g>
</g>
<g id="_x33___x2013__Layer">
	<path style="fill:#08162F;" d="M0,0h1024v1024H0V0z M59.0153618,512c0,21.2285767,0.2461662,41.2744751,0.7372818,60.262085
		h904.494751c0.4910889-18.9876099,0.7372437-39.0335083,0.7372437-60.262085
		c0-107.2014771-6.171814-184.7009888-19.4227905-243.8962097c-12.9824829-57.9957123-32.6338501-98.6121826-61.8435059-127.8221588
		c-29.2098999-29.20961-69.826416-48.8610001-127.8221436-61.8435364C696.7009888,65.1872025,619.201416,59.0153618,512,59.0153618
		s-184.7009277,6.1718407-243.8961487,19.4227333c-57.9957733,12.9825363-98.6122437,32.6339264-127.8221588,61.8435364
		c-29.209671,29.2099762-48.8610611,69.8264465-61.8435364,127.8221588
		C65.1872025,327.2990112,59.0153618,404.7985229,59.0153618,512z"/>
	<g>
		
			<line style="opacity:0.5;fill:none;stroke:#FFFFFF;stroke-width:57.2095146;stroke-linecap:round;stroke-miterlimit:10;" x1="136.859375" y1="679.3413696" x2="887.140625" y2="679.3413696"/>
		
			<line style="fill:none;stroke:#FFFFFF;stroke-width:57.2095146;stroke-linecap:round;stroke-miterlimit:10;" x1="136.859375" y1="679.3413696" x2="383.5912476" y2="679.3413696"/>
	</g>
</g>
</svg>
