<?xml version="1.0" encoding="utf-8"?>
<!-- Generator: Adobe Illustrator 30.0.0, SVG Export Plug-In . SVG Version: 9.03 Build 0)  -->
<svg version="1.1" xmlns="http://www.w3.org/2000/svg" xmlns:xlink="http://www.w3.org/1999/xlink" x="0px" y="0px"
	 viewBox="0 0 1024 1024" style="enable-background:new 0 0 1024 1024;" xml:space="preserve">
<g>
</g>
<g id="_x31___x2013__Layer">
	<linearGradient id="SVGID_1_" gradientUnits="userSpaceOnUse" x1="512" y1="638.1762085" x2="512" y2="2.0177636">
		<stop  offset="0" style="stop-color:#AAB6CC"/>
		<stop  offset="0.5" style="stop-color:#90A0BF"/>
		<stop  offset="1" style="stop-color:#758CB3"/>
	</linearGradient>
	<path style="fill:url(#SVGID_1_);" d="M1005.0249634,512c0-404.8197021-88.2052612-493.0249329-493.0249634-493.0249329
		S18.9750576,107.1802979,18.9750576,512c0,46.0476074,1.1463833,87.9855957,3.7650814,126.1762085h978.5197754
		C1003.87854,599.9855957,1005.0249634,558.0476074,1005.0249634,512z"/>
	<g>
		<defs>
			<path id="SVGID_00000125602334733323046850000015076826544471656580_" d="M593.3798828,20.386879
				C567.788269,19.4194202,540.6911621,18.9750576,512,18.9750576C107.1802979,18.9750576,18.9750576,107.1802979,18.9750576,512
				c0,34.6220093,2.0786991,97.0609741,2.0786991,97.0609741l410.84552-4.4242554L593.3798828,20.386879z"/>
		</defs>
		<clipPath id="SVGID_00000046329584491522977600000007329554388861419445_">
			<use xlink:href="#SVGID_00000125602334733323046850000015076826544471656580_"  style="overflow:visible;"/>
		</clipPath>
		
			<linearGradient id="SVGID_00000031202349108531226710000014085681104072154769_" gradientUnits="userSpaceOnUse" x1="400.4949341" y1="1044.2392578" x2="400.4949341" y2="280.1047668">
			<stop  offset="0" style="stop-color:#A0AEC1"/>
			<stop  offset="1" style="stop-color:#D0D6DD"/>
		</linearGradient>
		
			<path style="clip-path:url(#SVGID_00000046329584491522977600000007329554388861419445_);fill:url(#SVGID_00000031202349108531226710000014085681104072154769_);" d="
			M-257.5840454,527.5327148l375.3340149,174.2266846l358.2371521-358.2371826
			c8.8924866-8.8924561,23.3100281-8.8924561,32.2025146,0l46.6203613,46.6203613l103.3684082-103.3684692
			c8.8925171-8.8924561,23.3100586-8.8924561,32.2025146,0l149.1652222,149.1651917h246.9040527v608.2999268H-285.4602966
			L-257.5840454,527.5327148z"/>
		
			<linearGradient id="SVGID_00000062159911157360566340000016253934791964626050_" gradientUnits="userSpaceOnUse" x1="559.7879028" y1="1100.9873047" x2="559.7879028" y2="289.0649719">
			<stop  offset="0" style="stop-color:#A0AEC1"/>
			<stop  offset="1" style="stop-color:#697B99"/>
		</linearGradient>
		
			<path style="clip-path:url(#SVGID_00000046329584491522977600000007329554388861419445_);fill:url(#SVGID_00000062159911157360566340000016253934791964626050_);" d="
			M-56.476696,444.8995056h163.2752686l149.1651764-149.1651611c8.8924866-8.8924866,23.3100281-8.8924866,32.2025146,0
			l303.4802246,303.4801941l220.8469849-220.8469849c8.8924561-8.8924866,23.3100586-8.8924866,32.2025146,0
			l111.3330688,111.3330994h201.1074219l46.7922363,611.2866211H-84.3529587L-56.476696,444.8995056z"/>
	</g>
	<g>
		<rect x="980.2017822" y="551.5195923" style="fill:#7B8CA6;" width="24.8231506" height="19.6793156"/>
		<rect x="955.3786621" y="551.5195923" style="fill:#7B8CA6;" width="24.8231506" height="19.6793156"/>
		<rect x="930.555481" y="551.5195923" style="fill:#7B8CA6;" width="24.8231506" height="19.6793156"/>
		<rect x="905.7323608" y="551.5195923" style="fill:#7B8CA6;" width="24.8231506" height="19.6793156"/>
		<rect x="880.9091797" y="551.5195923" style="fill:#7B8CA6;" width="24.8231506" height="19.6793156"/>
		<rect x="856.0860596" y="551.5195923" style="fill:#7B8CA6;" width="24.8231506" height="19.6793156"/>
		<rect x="831.2628784" y="551.5195923" style="fill:#7B8CA6;" width="24.8231506" height="19.6793156"/>
		<rect x="806.4397583" y="551.5195923" style="fill:#7B8CA6;" width="24.8231506" height="19.6793156"/>
		<rect x="781.6165771" y="551.5195923" style="fill:#7B8CA6;" width="24.8231506" height="19.6793156"/>
		<rect x="756.793457" y="551.5195923" style="fill:#7B8CA6;" width="24.8231506" height="19.6793156"/>
		<rect x="731.9702759" y="551.5195923" style="fill:#7B8CA6;" width="24.8231506" height="19.6793156"/>
		<rect x="707.1471558" y="551.5195923" style="fill:#7B8CA6;" width="24.8231506" height="19.6793156"/>
		<rect x="682.3239746" y="551.5195923" style="fill:#7B8CA6;" width="24.8231506" height="19.6793156"/>
		<rect x="657.5008545" y="551.5195923" style="fill:#7B8CA6;" width="24.8231506" height="19.6793156"/>
		<rect x="632.6776733" y="551.5195923" style="fill:#7B8CA6;" width="24.8231506" height="19.6793156"/>
		<rect x="607.8545532" y="551.5195923" style="fill:#BEC7D3;" width="24.8231506" height="19.6793156"/>
		<rect x="583.0313721" y="551.5195923" style="fill:#BEC7D3;" width="24.8231506" height="19.6793156"/>
		<rect x="558.208252" y="551.5195923" style="fill:#BEC7D3;" width="24.8231506" height="19.6793156"/>
		<rect x="533.3850708" y="551.5195923" style="fill:#7B8CA6;" width="24.8231506" height="19.6793156"/>
		<rect x="508.5619202" y="551.5195923" style="fill:#7B8CA6;" width="24.8231506" height="19.6793156"/>
		<rect x="483.7387695" y="551.5195923" style="fill:#7B8CA6;" width="24.8231506" height="19.6793156"/>
		<rect x="458.9156189" y="551.5195923" style="fill:#7B8CA6;" width="24.8231506" height="19.6793156"/>
		<rect x="980.2017822" y="531.840271" style="fill:#7A8AA5;" width="24.8231506" height="19.6793156"/>
		<rect x="955.3786621" y="531.840271" style="fill:#7A8AA5;" width="24.8231506" height="19.6793156"/>
		<rect x="930.555481" y="531.840271" style="fill:#7A8AA5;" width="24.8231506" height="19.6793156"/>
		<rect x="905.7323608" y="531.840271" style="fill:#7A8AA5;" width="24.8231506" height="19.6793156"/>
		<rect x="880.9091797" y="531.840271" style="fill:#7A8AA5;" width="24.8231506" height="19.6793156"/>
		<rect x="856.0860596" y="531.840271" style="fill:#7A8AA5;" width="24.8231506" height="19.6793156"/>
		<rect x="831.2628784" y="531.840271" style="fill:#7A8AA5;" width="24.8231506" height="19.6793156"/>
		<rect x="806.4397583" y="531.840271" style="fill:#7A8AA5;" width="24.8231506" height="19.6793156"/>
		<rect x="781.6165771" y="531.840271" style="fill:#7A8AA5;" width="24.8231506" height="19.6793156"/>
		<rect x="756.793457" y="531.840271" style="fill:#7A8AA5;" width="24.8231506" height="19.6793156"/>
		<rect x="731.9702759" y="531.840271" style="fill:#7A8AA5;" width="24.8231506" height="19.6793156"/>
		<rect x="707.1471558" y="531.840271" style="fill:#7A8AA5;" width="24.8231506" height="19.6793156"/>
		<rect x="682.3239746" y="531.840271" style="fill:#7A8AA5;" width="24.8231506" height="19.6793156"/>
		<rect x="657.5008545" y="531.840271" style="fill:#7A8AA5;" width="24.8231506" height="19.6793156"/>
		<rect x="632.6776733" y="531.840271" style="fill:#C0C8D3;" width="24.8231506" height="19.6793156"/>
		<rect x="607.8545532" y="531.840271" style="fill:#C0C8D3;" width="24.8231506" height="19.6793156"/>
		<rect x="583.0313721" y="531.840271" style="fill:#C0C8D3;" width="24.8231506" height="19.6793156"/>
		<rect x="558.208252" y="531.840271" style="fill:#C0C8D3;" width="24.8231506" height="19.6793156"/>
		<rect x="533.3850708" y="531.840271" style="fill:#C0C8D3;" width="24.8231506" height="19.6793156"/>
		<rect x="508.5619202" y="531.840271" style="fill:#7A8AA5;" width="24.8231506" height="19.6793156"/>
		<rect x="483.7387695" y="531.840271" style="fill:#7A8AA5;" width="24.8231506" height="19.6793156"/>
		<rect x="458.9156189" y="531.840271" style="fill:#7A8AA5;" width="24.8231506" height="19.6793156"/>
		<rect x="980.2017822" y="512.1609497" style="fill:#7989A4;" width="24.8231506" height="19.6793156"/>
		<rect x="955.3786621" y="512.1609497" style="fill:#7989A4;" width="24.8231506" height="19.6793156"/>
		<rect x="930.555481" y="512.1609497" style="fill:#7989A4;" width="24.8231506" height="19.6793156"/>
		<rect x="905.7323608" y="512.1609497" style="fill:#7989A4;" width="24.8231506" height="19.6793156"/>
		<rect x="880.9091797" y="512.1609497" style="fill:#7989A4;" width="24.8231506" height="19.6793156"/>
		<rect x="856.0860596" y="512.1609497" style="fill:#7989A4;" width="24.8231506" height="19.6793156"/>
		<rect x="831.2628784" y="512.1609497" style="fill:#7989A4;" width="24.8231506" height="19.6793156"/>
		<rect x="806.4397583" y="512.1609497" style="fill:#7989A4;" width="24.8231506" height="19.6793156"/>
		<rect x="781.6165771" y="512.1609497" style="fill:#7989A4;" width="24.8231506" height="19.6793156"/>
		<rect x="756.793457" y="512.1609497" style="fill:#7989A4;" width="24.8231506" height="19.6793156"/>
		<rect x="731.9702759" y="512.1609497" style="fill:#7989A4;" width="24.8231506" height="19.6793156"/>
		<rect x="707.1471558" y="512.1609497" style="fill:#7989A4;" width="24.8231506" height="19.6793156"/>
		<rect x="682.3239746" y="512.1609497" style="fill:#7989A4;" width="24.8231506" height="19.6793156"/>
		<rect x="657.5008545" y="512.1609497" style="fill:#B1BAC9;" width="24.8231506" height="19.6793156"/>
		<rect x="632.6776733" y="512.1609497" style="fill:#C1C9D4;" width="24.8231506" height="19.6793156"/>
		<rect x="607.8545532" y="512.1609497" style="fill:#C1C9D4;" width="24.8231506" height="19.6793156"/>
		<rect x="583.0313721" y="512.1609497" style="fill:#C1C9D4;" width="24.8231506" height="19.6793156"/>
		<rect x="558.208252" y="512.1609497" style="fill:#C1C9D4;" width="24.8231506" height="19.6793156"/>
		<rect x="533.3850708" y="512.1609497" style="fill:#C1C9D4;" width="24.8231506" height="19.6793156"/>
		<rect x="508.5619202" y="512.1609497" style="fill:#C0C8D3;" width="24.8231506" height="19.6793156"/>
		<rect x="483.7387695" y="512.1609497" style="fill:#7989A4;" width="24.8231506" height="19.6793156"/>
		<rect x="458.9156189" y="512.1609497" style="fill:#7989A4;" width="24.8231506" height="19.6793156"/>
		<rect x="980.2017822" y="492.4816589" style="fill:#7788A3;" width="24.8231506" height="19.6793156"/>
		<rect x="955.3786621" y="492.4816589" style="fill:#7788A3;" width="24.8231506" height="19.6793156"/>
		<rect x="930.555481" y="492.4816589" style="fill:#7788A3;" width="24.8231506" height="19.6793156"/>
		<rect x="905.7323608" y="492.4816589" style="fill:#7788A3;" width="24.8231506" height="19.6793156"/>
		<rect x="880.9091797" y="492.4816589" style="fill:#7788A3;" width="24.8231506" height="19.6793156"/>
		<rect x="856.0860596" y="492.4816589" style="fill:#7788A3;" width="24.8231506" height="19.6793156"/>
		<rect x="831.2628784" y="492.4816589" style="fill:#7788A3;" width="24.8231506" height="19.6793156"/>
		<rect x="806.4397583" y="492.4816589" style="fill:#7788A3;" width="24.8231506" height="19.6793156"/>
		<rect x="781.6165771" y="492.4816589" style="fill:#7788A3;" width="24.8231506" height="19.6793156"/>
		<rect x="756.793457" y="492.4816589" style="fill:#7788A3;" width="24.8231506" height="19.6793156"/>
		<rect x="731.9702759" y="492.4816589" style="fill:#7788A3;" width="24.8231506" height="19.6793156"/>
		<rect x="707.1471558" y="492.4816589" style="fill:#7788A3;" width="24.8231506" height="19.6793156"/>
		<rect x="682.3239746" y="492.4816589" style="fill:#B0BBC9;" width="24.8231506" height="19.6793156"/>
		<rect x="657.5008545" y="492.4816589" style="fill:#C2CAD5;" width="24.8231506" height="19.6793156"/>
		<rect x="632.6776733" y="492.4816589" style="fill:#C2CAD5;" width="24.8231506" height="19.6793156"/>
		<rect x="607.8545532" y="492.4816589" style="fill:#C2CAD5;" width="24.8231506" height="19.6793156"/>
		<rect x="583.0313721" y="492.4816589" style="fill:#C2CAD5;" width="24.8231506" height="19.6793156"/>
		<rect x="558.208252" y="492.4816589" style="fill:#C2CAD5;" width="24.8231506" height="19.6793156"/>
		<rect x="533.3850708" y="492.4816589" style="fill:#C2CAD5;" width="24.8231506" height="19.6793156"/>
		<rect x="508.5619202" y="492.4816589" style="fill:#C2CAD5;" width="24.8231506" height="19.6793156"/>
		<rect x="483.7387695" y="492.4816589" style="fill:#909EB4;" width="24.8231506" height="19.6793156"/>
		<rect x="458.9156189" y="492.4816589" style="fill:#7788A3;" width="24.8231506" height="19.6793156"/>
		<rect x="930.555481" y="472.8023376" style="fill:#7687A2;" width="24.8231506" height="19.6793156"/>
		<rect x="905.7323608" y="472.8023376" style="fill:#7687A2;" width="24.8231506" height="19.6793156"/>
		<rect x="880.9091797" y="472.8023376" style="fill:#7687A2;" width="24.8231506" height="19.6793156"/>
		<rect x="856.0860596" y="472.8023376" style="fill:#7687A2;" width="24.8231506" height="19.6793156"/>
		<rect x="831.2628784" y="472.8023376" style="fill:#7687A2;" width="24.8231506" height="19.6793156"/>
		<rect x="806.4397583" y="472.8023376" style="fill:#7687A2;" width="24.8231506" height="19.6793156"/>
		<rect x="781.6165771" y="472.8023376" style="fill:#7687A2;" width="24.8231506" height="19.6793156"/>
		<rect x="756.793457" y="472.8023376" style="fill:#7687A2;" width="24.8231506" height="19.6793156"/>
		<rect x="731.9702759" y="472.8023376" style="fill:#7687A2;" width="24.8231506" height="19.6793156"/>
		<rect x="707.1471558" y="472.8023376" style="fill:#7687A2;" width="24.8231506" height="19.6793156"/>
		<rect x="682.3239746" y="472.8023376" style="fill:#C3CBD5;" width="24.8231506" height="19.6793156"/>
		<rect x="657.5008545" y="472.8023376" style="fill:#C3CBD5;" width="24.8231506" height="19.6793156"/>
		<rect x="632.6776733" y="472.8023376" style="fill:#C3CBD5;" width="24.8231506" height="19.6793156"/>
		<rect x="607.8545532" y="472.8023376" style="fill:#C3CBD5;" width="24.8231506" height="19.6793156"/>
		<rect x="583.0313721" y="472.8023376" style="fill:#C3CBD5;" width="24.8231506" height="19.6793156"/>
		<rect x="558.208252" y="472.8023376" style="fill:#C3CBD5;" width="24.8231506" height="19.6793156"/>
		<rect x="533.3850708" y="472.8023376" style="fill:#C3CBD5;" width="24.8231506" height="19.6793156"/>
		<rect x="508.5619202" y="472.8023376" style="fill:#C3CBD5;" width="24.8231506" height="19.6793156"/>
		<rect x="483.7387695" y="472.8023376" style="fill:#C3CBD5;" width="24.8231506" height="19.6793156"/>
		<rect x="905.7323608" y="453.1230164" style="fill:#7486A1;" width="24.8231506" height="19.6793156"/>
		<rect x="880.9091797" y="453.1230164" style="fill:#7486A1;" width="24.8231506" height="19.6793156"/>
		<rect x="856.0860596" y="453.1230164" style="fill:#7486A1;" width="24.8231506" height="19.6793156"/>
		<rect x="831.2628784" y="453.1230164" style="fill:#7486A1;" width="24.8231506" height="19.6793156"/>
		<rect x="806.4397583" y="453.1230164" style="fill:#7486A1;" width="24.8231506" height="19.6793156"/>
		<rect x="781.6165771" y="453.1230164" style="fill:#7486A1;" width="24.8231506" height="19.6793156"/>
		<rect x="756.793457" y="453.1230164" style="fill:#7486A1;" width="24.8231506" height="19.6793156"/>
		<rect x="731.9702759" y="453.1230164" style="fill:#7486A1;" width="24.8231506" height="19.6793156"/>
		<rect x="707.1471558" y="453.1230164" style="fill:#C5CCD6;" width="24.8231506" height="19.6793156"/>
		<rect x="682.3239746" y="453.1230164" style="fill:#C5CCD6;" width="24.8231506" height="19.6793156"/>
		<rect x="657.5008545" y="453.1230164" style="fill:#C5CCD6;" width="24.8231506" height="19.6793156"/>
		<rect x="632.6776733" y="453.1230164" style="fill:#C5CCD6;" width="24.8231506" height="19.6793156"/>
		<rect x="607.8545532" y="453.1230164" style="fill:#C5CCD6;" width="24.8231506" height="19.6793156"/>
		<rect x="583.0313721" y="453.1230164" style="fill:#C5CCD6;" width="24.8231506" height="19.6793156"/>
		<rect x="558.208252" y="453.1230164" style="fill:#C5CCD6;" width="24.8231506" height="19.6793156"/>
		<rect x="533.3850708" y="453.1230164" style="fill:#C5CCD6;" width="24.8231506" height="19.6793156"/>
		<rect x="508.5619202" y="453.1230164" style="fill:#C5CCD6;" width="24.8231506" height="19.6793156"/>
		<rect x="483.7387695" y="453.1230164" style="fill:#C5CCD6;" width="24.8231506" height="19.6793156"/>
		<rect x="880.9091797" y="433.4436951" style="fill:#7385A1;" width="24.8231506" height="19.6793156"/>
		<rect x="856.0860596" y="433.4436951" style="fill:#7385A1;" width="24.8231506" height="19.6793156"/>
		<rect x="831.2628784" y="433.4436951" style="fill:#7385A1;" width="24.8231506" height="19.6793156"/>
		<rect x="806.4397583" y="433.4436951" style="fill:#7385A1;" width="24.8231506" height="19.6793156"/>
		<rect x="781.6165771" y="433.4436951" style="fill:#7385A1;" width="24.8231506" height="19.6793156"/>
		<rect x="756.793457" y="433.4436951" style="fill:#7385A1;" width="24.8231506" height="19.6793156"/>
		<rect x="731.9702759" y="433.4436951" style="fill:#B3BDCB;" width="24.8231506" height="19.6793156"/>
		<rect x="707.1471558" y="433.4436951" style="fill:#C5CDD7;" width="24.8231506" height="19.6793156"/>
		<rect x="682.3239746" y="433.4436951" style="fill:#C5CDD7;" width="24.8231506" height="19.6793156"/>
		<rect x="657.5008545" y="433.4436951" style="fill:#C5CDD7;" width="24.8231506" height="19.6793156"/>
		<rect x="632.6776733" y="433.4436951" style="fill:#C5CDD7;" width="24.8231506" height="19.6793156"/>
		<rect x="607.8545532" y="433.4436951" style="fill:#C5CDD7;" width="24.8231506" height="19.6793156"/>
		<rect x="583.0313721" y="433.4436951" style="fill:#C5CDD7;" width="24.8231506" height="19.6793156"/>
		<rect x="558.208252" y="433.4436951" style="fill:#C5CDD7;" width="24.8231506" height="19.6793156"/>
		<rect x="533.3850708" y="433.4436951" style="fill:#C5CDD7;" width="24.8231506" height="19.6793156"/>
		<rect x="508.5619202" y="433.4436951" style="fill:#C5CDD7;" width="24.8231506" height="19.6793156"/>
		<rect x="483.7387695" y="433.4436951" style="fill:#C5CDD7;" width="24.8231506" height="19.6793156"/>
		<rect x="856.0860596" y="413.7643738" style="fill:#72839F;" width="24.8231506" height="19.6793156"/>
		<rect x="831.2628784" y="413.7643738" style="fill:#72839F;" width="24.8231506" height="19.6793156"/>
		<rect x="806.4397583" y="413.7643738" style="fill:#72839F;" width="24.8231506" height="19.6793156"/>
		<rect x="781.6165771" y="413.7643738" style="fill:#72839F;" width="24.8231506" height="19.6793156"/>
		<rect x="756.793457" y="413.7643738" style="fill:#B3BDCB;" width="24.8231506" height="19.6793156"/>
		<rect x="731.9702759" y="413.7643738" style="fill:#C7CED8;" width="24.8231506" height="19.6793156"/>
		<rect x="707.1471558" y="413.7643738" style="fill:#C7CED8;" width="24.8231506" height="19.6793156"/>
		<rect x="682.3239746" y="413.7643738" style="fill:#C7CED8;" width="24.8231506" height="19.6793156"/>
		<rect x="657.5008545" y="413.7643738" style="fill:#C7CED8;" width="24.8231506" height="19.6793156"/>
		<rect x="632.6776733" y="413.7643738" style="fill:#C7CED8;" width="24.8231506" height="19.6793156"/>
		<rect x="607.8545532" y="413.7643738" style="fill:#C7CED8;" width="24.8231506" height="19.6793156"/>
		<rect x="583.0313721" y="413.7643738" style="fill:#C7CED8;" width="24.8231506" height="19.6793156"/>
		<rect x="558.208252" y="413.7643738" style="fill:#C7CED8;" width="24.8231506" height="19.6793156"/>
		<rect x="533.3850708" y="413.7643738" style="fill:#C7CED8;" width="24.8231506" height="19.6793156"/>
		<rect x="508.5619202" y="413.7643738" style="fill:#C7CED8;" width="24.8231506" height="19.6793156"/>
		<rect x="483.7387695" y="413.7643738" style="fill:#C7CED8;" width="24.8231506" height="19.6793156"/>
		<rect x="831.2628784" y="394.085083" style="fill:#70829E;" width="24.8231506" height="19.6793156"/>
		<rect x="806.4397583" y="394.085083" style="fill:#70829E;" width="24.8231506" height="19.6793156"/>
		<rect x="781.6165771" y="394.085083" style="fill:#B4BECB;" width="24.8231506" height="19.6793156"/>
		<rect x="756.793457" y="394.085083" style="fill:#C8D0D8;" width="24.8231506" height="19.6793156"/>
		<rect x="731.9702759" y="394.085083" style="fill:#C8D0D8;" width="24.8231506" height="19.6793156"/>
		<rect x="707.1471558" y="394.085083" style="fill:#C8D0D8;" width="24.8231506" height="19.6793156"/>
		<rect x="682.3239746" y="394.085083" style="fill:#C8D0D8;" width="24.8231506" height="19.6793156"/>
		<rect x="657.5008545" y="394.085083" style="fill:#C8D0D8;" width="24.8231506" height="19.6793156"/>
		<rect x="632.6776733" y="394.085083" style="fill:#C8D0D8;" width="24.8231506" height="19.6793156"/>
		<rect x="607.8545532" y="394.085083" style="fill:#C8D0D8;" width="24.8231506" height="19.6793156"/>
		<rect x="583.0313721" y="394.085083" style="fill:#C8D0D8;" width="24.8231506" height="19.6793156"/>
		<rect x="558.208252" y="394.085083" style="fill:#C8D0D8;" width="24.8231506" height="19.6793156"/>
		<rect x="533.3850708" y="394.085083" style="fill:#C8D0D8;" width="24.8231506" height="19.6793156"/>
		<rect x="508.5619202" y="394.085083" style="fill:#C8D0D8;" width="24.8231506" height="19.6793156"/>
		<rect x="831.2628784" y="374.4057617" style="fill:#6F819E;" width="24.8231506" height="19.6793156"/>
		<rect x="806.4397583" y="374.4057617" style="fill:#6F819E;" width="24.8231506" height="19.6793156"/>
		<rect x="756.793457" y="374.4057617" style="fill:#C9D0D9;" width="24.8231506" height="19.6793156"/>
		<rect x="731.9702759" y="374.4057617" style="fill:#C9D0D9;" width="24.8231506" height="19.6793156"/>
		<rect x="707.1471558" y="374.4057617" style="fill:#C9D0D9;" width="24.8231506" height="19.6793156"/>
		<rect x="682.3239746" y="374.4057617" style="fill:#C9D0D9;" width="24.8231506" height="19.6793156"/>
		<rect x="657.5008545" y="374.4057617" style="fill:#C9D0D9;" width="24.8231506" height="19.6793156"/>
		<rect x="632.6776733" y="374.4057617" style="fill:#C9D0D9;" width="24.8231506" height="19.6793156"/>
		<rect x="607.8545532" y="374.4057617" style="fill:#C9D0D9;" width="24.8231506" height="19.6793156"/>
		<rect x="583.0313721" y="374.4057617" style="fill:#C9D0D9;" width="24.8231506" height="19.6793156"/>
		<rect x="558.208252" y="374.4057617" style="fill:#C7CFD7;" width="24.8231506" height="19.6793156"/>
		<rect x="533.3850708" y="374.4057617" style="fill:#C4CBD2;" width="24.8231506" height="19.6793156"/>
		<rect x="508.5619202" y="374.4057617" style="fill:#C9D0D9;" width="24.8231506" height="19.6793156"/>
		<rect x="731.9702759" y="354.7264404" style="fill:#CBD2DA;" width="24.8231506" height="19.6793156"/>
		<rect x="707.1471558" y="354.7264404" style="fill:#CBD2DA;" width="24.8231506" height="19.6793156"/>
		<rect x="682.3239746" y="354.7264404" style="fill:#CBD2DA;" width="24.8231506" height="19.6793156"/>
		<rect x="657.5008545" y="354.7264404" style="fill:#CBD2DA;" width="24.8231506" height="19.6793156"/>
		<rect x="632.6776733" y="354.7264404" style="fill:#CBD2DA;" width="24.8231506" height="19.6793156"/>
		<rect x="607.8545532" y="354.7264404" style="fill:#CBD2DA;" width="24.8231506" height="19.6793156"/>
		<rect x="583.0313721" y="354.7264404" style="fill:#C9D0D8;" width="24.8231506" height="19.6793156"/>
		<rect x="508.5619202" y="354.7264404" style="fill:#C6CCD3;" width="24.8231506" height="19.6793156"/>
		<rect x="731.9702759" y="335.0471191" style="fill:#CCD2DA;" width="24.8231506" height="19.6793156"/>
		<rect x="707.1471558" y="335.0471191" style="fill:#CCD2DA;" width="24.8231506" height="19.6793156"/>
		<rect x="682.3239746" y="335.0471191" style="fill:#CCD2DA;" width="24.8231506" height="19.6793156"/>
		<rect x="657.5008545" y="335.0471191" style="fill:#CCD2DA;" width="24.8231506" height="19.6793156"/>
		<rect x="632.6776733" y="335.0471191" style="fill:#CCD2DA;" width="24.8231506" height="19.6793156"/>
		<rect x="607.8545532" y="335.0471191" style="fill:#CCD2DA;" width="24.8231506" height="19.6793156"/>
		<rect x="707.1471558" y="315.3677979" style="fill:#CDD3DB;" width="24.8231506" height="19.6793156"/>
		<rect x="682.3239746" y="315.3677979" style="fill:#CDD3DB;" width="24.8231506" height="19.6793156"/>
		<rect x="657.5008545" y="315.3677979" style="fill:#CDD3DB;" width="24.8231506" height="19.6793156"/>
		<rect x="632.6776733" y="315.3677979" style="fill:#CDD3DB;" width="24.8231506" height="19.6793156"/>
		<rect x="682.3239746" y="295.6884766" style="fill:#CED4DC;" width="24.8231506" height="19.6793156"/>
		<rect x="657.5008545" y="295.6884766" style="fill:#CED4DC;" width="24.8231506" height="19.6793156"/>
		<rect x="632.6776733" y="295.6884766" style="fill:#CCD3DA;" width="24.8231506" height="19.6793156"/>
		<rect x="657.5008545" y="276.0091858" style="fill:#C7CDD3;" width="24.8231506" height="19.6793156"/>
	</g>
</g>
</svg>
